<?xml version="1.0" standalone="no"?>
<!DOCTYPE svg PUBLIC "-//W3C//DTD SVG 20010904//EN"
 "http://www.w3.org/TR/2001/REC-SVG-20010904/DTD/svg10.dtd">
<svg version="1.0" xmlns="http://www.w3.org/2000/svg"
 width="400.000000pt" height="400.000000pt" viewBox="0 0 400.000000 400.000000"
 preserveAspectRatio="xMidYMid meet">
<metadata>
Created by potrace 1.14, written by Peter Selinger 2001-2017
</metadata>
<g transform="translate(0.000000,400.000000) scale(0.100000,-0.100000)"
fill="#000000" stroke="none">
<path d="M1912 3691 c-15 -8 -50 -31 -79 -53 -60 -44 -63 -45 -63 -19 0 15 -7
12 -41 -18 -41 -38 -139 -87 -139 -70 0 5 9 18 20 29 11 11 20 27 20 36 0 13
-7 11 -35 -11 -27 -20 -39 -24 -49 -16 -16 13 -26 4 -26 -23 0 -12 -13 -34
-30 -49 -16 -16 -30 -33 -30 -38 0 -5 -6 -9 -14 -9 -9 0 -12 7 -9 20 3 11 2
20 -2 20 -12 0 -34 -33 -35 -52 0 -10 -9 -27 -19 -37 -36 -36 -50 -66 -65
-136 -17 -81 -77 -259 -107 -316 -11 -22 -22 -64 -23 -92 -2 -29 -9 -95 -16
-147 -13 -101 -7 -206 16 -292 7 -29 14 -69 14 -88 0 -39 18 -94 49 -154 12
-22 24 -62 27 -89 5 -34 10 -45 15 -35 12 21 36 232 44 373 5 105 9 128 35
180 26 54 47 128 65 225 9 48 63 156 95 187 29 30 95 62 127 63 12 0 24 4 27
8 3 5 35 9 71 9 50 1 68 -3 72 -14 5 -12 7 -12 14 -1 6 9 11 10 17 2 11 -16
41 -24 47 -13 4 5 11 7 16 3 5 -3 6 -11 2 -17 -4 -7 0 -6 10 2 11 9 17 10 17
2 0 -7 10 -10 25 -7 14 3 23 1 20 -3 -2 -5 4 -11 15 -14 13 -3 18 -10 14 -21
-3 -9 -2 -16 4 -16 12 0 11 18 -2 38 -6 11 -1 12 24 8 32 -5 54 -16 32 -16 -7
0 -12 -5 -12 -10 0 -6 3 -9 8 -9 19 3 25 -2 12 -11 -11 -7 -11 -10 -2 -10 7 0
10 -4 7 -10 -3 -6 1 -7 10 -3 13 5 14 7 3 14 -10 7 -11 9 0 9 7 0 10 6 7 13
-4 6 0 3 9 -7 8 -10 13 -24 9 -29 -4 -7 1 -8 12 -3 15 5 16 4 5 -9 -11 -13
-11 -16 -1 -13 8 2 15 -5 16 -14 2 -10 -2 -15 -10 -12 -7 3 -16 1 -20 -5 -3
-6 -1 -11 5 -11 6 0 8 -4 5 -10 -3 -5 0 -10 7 -10 8 0 9 -3 3 -8 -16 -11 -18
-52 -3 -52 9 0 9 -3 -2 -10 -11 -7 -11 -10 -2 -10 7 0 10 -5 7 -10 -5 -8 -11
-7 -21 1 -12 10 -13 8 -5 -14 7 -18 7 -28 -1 -33 -7 -5 -8 -2 -3 7 4 8 -1 5
-12 -6 -11 -11 -19 -22 -18 -25 1 -3 -1 -14 -5 -25 -6 -16 -8 -13 -7 13 0 18
-3 35 -6 38 -9 9 -27 -6 -27 -22 0 -9 5 -12 11 -8 8 5 8 1 0 -13 -6 -11 -7
-24 -3 -29 4 -5 -1 -2 -10 5 -12 9 -16 21 -12 36 3 13 1 26 -5 29 -6 4 -8 -2
-6 -14 2 -11 -1 -20 -6 -20 -6 0 -8 -3 -6 -7 3 -5 1 -17 -4 -28 -7 -19 -8 -19
-8 2 -1 17 -6 21 -28 20 -25 -2 -45 -37 -20 -37 8 0 7 -4 -1 -12 -18 -18 -14
-31 8 -25 14 3 24 -1 31 -15 7 -13 7 -18 1 -14 -6 3 -13 2 -17 -4 -6 -9 16
-15 39 -11 5 1 4 -5 -4 -13 -7 -9 -19 -16 -28 -16 -18 0 -10 -11 10 -13 22 -4
62 -35 64 -51 1 -9 -3 -14 -9 -13 -6 1 -13 -7 -15 -17 -3 -15 0 -18 16 -14 15
4 18 1 15 -13 -3 -11 -11 -19 -18 -19 -22 0 -23 -24 -1 -42 15 -13 17 -17 6
-18 -10 0 -7 -5 8 -16 12 -8 20 -19 17 -24 -3 -4 1 -13 9 -19 8 -7 12 -21 9
-31 -3 -11 0 -26 6 -34 18 -22 31 -75 20 -82 -6 -4 -6 -10 0 -18 6 -7 8 -16 5
-19 -3 -3 -2 -12 2 -19 20 -32 20 -134 0 -167 -5 -7 -4 -16 1 -20 6 -3 9 -14
7 -23 -1 -10 1 -18 6 -18 9 0 2 -68 -10 -100 -1 -3 -1 -9 0 -15 1 -5 -2 -7 -6
-3 -10 11 -33 -23 -34 -49 0 -20 -3 -21 -25 -13 -15 6 -26 6 -30 0 -9 -15 -50
-4 -47 11 2 8 10 19 19 26 23 18 8 43 -25 43 -19 0 -35 -8 -44 -22 l-15 -22
-26 27 c-17 16 -27 37 -27 55 0 25 -5 30 -29 34 -17 2 -28 2 -26 -2 2 -3 0
-12 -5 -20 -5 -9 -4 -20 3 -29 10 -12 9 -13 -3 -6 -13 8 -13 7 -1 -8 7 -10 21
-16 29 -15 9 2 21 -6 27 -18 5 -11 24 -32 40 -46 27 -24 28 -26 12 -42 -13
-13 -14 -22 -7 -36 6 -11 17 -17 24 -14 9 3 17 -3 21 -15 3 -12 10 -21 14 -21
12 0 30 -46 22 -58 -7 -12 -140 -33 -156 -24 -7 3 -7 2 0 -5 6 -6 37 -20 70
-31 35 -12 59 -26 57 -33 -2 -9 2 -8 14 2 12 9 15 9 10 2 -4 -8 -1 -13 8 -13
9 0 16 -7 16 -15 0 -8 -5 -15 -11 -15 -5 0 -7 -5 -4 -10 3 -6 1 -10 -4 -10 -6
0 -11 -6 -11 -14 0 -8 -5 -18 -12 -22 -7 -5 -8 -3 -3 6 5 8 4 11 -2 7 -6 -4
-9 -23 -6 -43 2 -22 0 -33 -7 -29 -6 3 -7 0 -4 -9 5 -13 34 -29 56 -31 4 0 15
-7 25 -15 10 -9 21 -17 26 -18 4 -1 7 -4 7 -7 0 -3 0 -10 0 -16 0 -5 -4 -8 -9
-4 -5 3 -12 1 -16 -5 -4 -6 -11 -8 -16 -4 -5 3 -8 0 -7 -8 2 -7 -2 -12 -9 -11
-6 1 -14 -4 -17 -13 -3 -8 -2 -13 2 -10 5 3 9 -1 9 -8 0 -8 -6 -12 -12 -10 -6
3 -24 -2 -39 -10 -24 -12 -25 -15 -9 -19 13 -3 12 -5 -7 -6 -20 -1 -22 -3 -10
-11 12 -8 12 -10 -5 -10 -15 0 -17 -3 -7 -9 11 -6 10 -10 -5 -16 -18 -8 -27
-11 -39 -14 -4 0 0 -9 7 -18 8 -9 9 -14 3 -10 -7 4 -17 1 -23 -7 -9 -10 -8
-16 4 -26 14 -12 20 -7 15 15 -1 5 2 6 6 2 11 -11 13 -58 2 -51 -4 3 -8 0 -8
-5 0 -6 5 -11 11 -11 5 0 7 -4 4 -10 -3 -5 0 -10 9 -10 8 0 17 -6 19 -12 3 -8
6 -6 6 5 1 14 5 16 19 9 9 -5 23 -7 29 -5 7 3 20 -1 30 -9 20 -14 28 -38 14
-38 -5 0 -11 8 -13 17 -2 11 -14 17 -35 19 -31 2 -32 1 -22 -19 17 -31 18 -32
32 -16 6 8 11 12 10 10 -2 -2 2 -10 8 -18 9 -10 8 -17 -1 -28 -7 -8 -15 -13
-19 -11 -3 2 -12 -2 -19 -10 -10 -11 -10 -14 0 -14 10 0 10 -2 -1 -9 -11 -7
-11 -9 0 -14 10 -4 8 -6 -4 -6 -10 -1 -15 -5 -12 -11 3 -5 1 -10 -6 -10 -7 0
-2 -11 11 -25 13 -14 20 -28 17 -32 -4 -3 -7 0 -7 7 0 7 -3 11 -6 8 -6 -7 16
-48 34 -63 11 -9 18 -27 21 -57 1 -4 8 -14 17 -22 14 -14 14 -16 0 -16 -10 0
-13 -6 -10 -15 4 -8 1 -22 -6 -29 -14 -18 5 -60 24 -53 8 3 11 -5 8 -29 -2
-18 -8 -32 -12 -31 -5 1 -16 -7 -25 -18 -9 -11 -14 -13 -10 -5 4 8 -1 6 -10
-5 -13 -16 -19 -18 -35 -7 -11 6 -25 12 -31 12 -6 0 -47 26 -92 58 -45 32 -92
65 -104 73 -11 8 -49 35 -82 62 -34 26 -64 47 -67 47 -11 0 107 -108 198 -182
49 -39 66 -52 121 -91 16 -11 15 -16 -19 -64 -25 -36 -43 -78 -55 -130 -10
-43 -19 -81 -19 -85 0 -5 14 -8 31 -8 16 0 28 4 24 9 -8 13 15 101 26 101 5 0
9 6 9 13 0 24 37 50 62 44 12 -4 28 -2 34 4 15 13 58 -7 49 -22 -4 -5 -1 -8 7
-7 9 2 13 -9 13 -35 0 -29 6 -43 25 -57 30 -22 42 -17 31 13 -5 12 -7 32 -5
45 6 32 -54 116 -72 101 -8 -7 -14 -7 -19 1 -3 5 0 10 7 10 7 0 19 9 25 19 9
15 230 131 249 131 3 0 88 55 183 119 20 14 50 39 66 57 17 17 38 36 48 41 29
15 86 113 93 162 4 29 2 56 -6 76 -35 82 -12 285 44 395 44 86 72 169 85 259
15 98 21 106 68 103 21 -1 45 4 53 10 48 41 157 363 164 486 2 29 -1 55 -5 58
-5 3 -9 17 -9 31 0 16 -7 27 -20 30 -23 6 -25 24 -8 56 28 53 90 378 82 435
-1 9 -5 40 -9 68 -6 39 -3 60 10 88 15 32 16 43 7 70 -16 43 -15 61 4 77 12
10 20 10 35 1 10 -7 21 -12 23 -12 7 0 -15 62 -27 78 -5 7 -14 33 -18 59 -6
30 -19 57 -37 74 -15 14 -42 43 -61 63 -19 20 -39 36 -45 36 -13 0 -106 62
-168 113 -25 20 -53 55 -63 77 -10 22 -21 40 -24 40 -4 0 -30 22 -59 50 -58
55 -121 90 -164 90 -16 0 -42 10 -59 22 -28 21 -32 21 -77 9 -78 -23 -107 -24
-169 -6 -76 23 -272 26 -311 6z m229 -1075 c1 -6 1 -14 0 -18 0 -5 6 -8 15 -8
8 0 13 -4 9 -9 -3 -5 -2 -12 3 -15 5 -3 9 0 10 7 3 35 10 52 23 52 17 0 38
-17 33 -27 -3 -4 7 -6 20 -5 14 1 24 -2 23 -8 -1 -5 -5 -9 -9 -7 -12 3 -9 -26
2 -33 6 -4 8 -11 4 -16 -3 -5 -11 -6 -17 -2 -8 5 -8 2 0 -9 7 -8 9 -19 5 -23
-4 -5 5 0 19 11 l26 18 -21 19 c-12 10 -15 16 -8 12 7 -4 18 -2 25 4 8 6 18 6
27 1 11 -7 12 -10 2 -10 -9 0 -12 -10 -10 -27 2 -16 -2 -28 -11 -31 -8 -3 -11
0 -7 7 5 7 1 9 -8 5 -9 -3 -14 -10 -11 -14 3 -4 -9 -6 -25 -5 -25 2 -28 0 -19
-12 9 -11 9 -17 -1 -26 -10 -9 -11 -9 -6 1 4 6 2 12 -3 12 -6 0 -11 -6 -11
-12 0 -9 -4 -8 -10 2 -7 11 -10 11 -10 2 0 -7 -6 -10 -12 -7 -7 4 -4 -1 6 -9
17 -13 17 -16 4 -16 -9 0 -18 -7 -20 -17 -3 -17 -58 -27 -58 -10 0 4 -5 5 -10
2 -20 -12 -39 15 -33 48 2 18 5 37 5 44 1 7 5 10 9 7 4 -2 13 5 19 16 8 15 8
20 -2 21 -11 0 -11 2 0 6 9 4 10 8 2 18 -8 10 -8 15 1 21 7 4 9 3 6 -3 -3 -5
3 -17 15 -27 15 -13 23 -15 32 -6 8 9 8 11 -3 8 -7 -2 -15 6 -17 16 -1 10 -9
23 -16 27 -10 7 -10 9 1 9 11 0 10 3 -3 13 -16 12 -16 14 -2 14 9 0 17 -5 17
-11z"/>
<path d="M1529 2452 c-44 -29 -77 -66 -89 -96 -6 -16 -9 -30 -7 -32 2 -2 30 6
63 17 82 29 142 30 160 3 15 -21 13 -23 -55 -49 -65 -26 -143 -86 -129 -101 4
-3 35 -7 70 -8 51 -2 71 -8 106 -31 25 -17 38 -31 31 -35 -14 -10 -14 -21 3
-31 8 -6 9 -9 1 -9 -6 0 -10 -8 -8 -17 2 -10 4 -22 4 -26 1 -5 6 -5 11 -2 6 4
8 11 5 16 -3 5 1 6 9 3 9 -3 16 -10 16 -15 0 -5 10 -5 23 0 13 5 38 12 56 14
39 7 137 78 146 108 8 25 -12 104 -31 120 -18 15 4 37 46 45 34 7 46 19 30 29
-8 5 -8 11 0 20 9 11 6 16 -17 21 -29 7 -73 32 -84 47 -4 5 -15 4 -26 -2 -11
-5 -23 -8 -26 -5 -12 12 -154 34 -217 34 -45 0 -73 -5 -91 -18z"/>
<path d="M1675 1608 c-8 -10 -13 -28 -12 -40 2 -12 -3 -35 -11 -51 -21 -41 -6
-88 32 -98 38 -10 54 -2 58 29 2 22 8 27 33 28 17 1 34 2 40 3 5 1 -5 11 -22
24 -42 29 -55 57 -37 82 30 40 -47 62 -81 23z"/>
<path d="M2827 428 c2 -80 -22 -105 -50 -52 l-14 27 -28 -56 c-15 -31 -34 -62
-43 -69 -8 -7 -23 -26 -32 -41 -10 -16 -51 -62 -91 -104 -65 -67 -70 -75 -45
-69 35 9 74 36 81 56 2 8 42 51 87 95 73 72 86 81 127 85 31 3 46 10 47 20 0
8 4 23 8 32 6 13 4 87 -3 116 -1 1 -11 2 -23 2 -21 0 -23 -5 -21 -42z"/>
</g>
</svg>
